<!DOCTYPE svg PUBLIC "-//W3C//DTD SVG 1.1//EN" "http://www.w3.org/Graphics/SVG/1.1/DTD/svg11.dtd">

<svg fill="#ffffff" height="70px" width="70px" version="1.1" xmlns="http://www.w3.org/2000/svg" xmlns:xlink="http://www.w3.org/1999/xlink" viewBox="0 0 512 512" xml:space="preserve">

<g stroke-width="0"/>

<g stroke-linecap="round" stroke-linejoin="round"/>

<g> <g> <g> <path d="M481.371,489.342l-85.333-136.533c-3.125-4.983-11.35-4.983-14.475,0l-85.333,136.533 c-1.642,2.633-1.729,6.483-0.225,9.192c1.504,2.717,4.358,4.933,7.462,4.933h170.667c3.104,0,5.958-2.217,7.462-4.933 C483.1,495.825,483.013,491.975,481.371,489.342z M318.863,486.4L388.8,374.5l69.938,111.9H318.863z"/> </g> </g> <g> <g> <path d="M397.292,0H56.042C41.905,0,29.334,10.4,29.334,24.5v460.867c0,14.1,12.542,26.633,26.65,26.633H260.8 c4.713,0,8.533-3.817,8.533-8.533s-3.821-8.533-8.533-8.533H55.984c-4.696,0-9.583-4.883-9.583-9.567V24.5 c0-4.683,4.912-7.433,9.642-7.433h341.25c4.65,0,7.508,2.808,7.508,7.4V323.2c0,4.717,3.821,8.533,8.533,8.533 s8.533-3.817,8.533-8.533V24.467C421.867,10.392,411.43,0,397.292,0z"/> </g> </g> <g> <g> <path d="M269.334,59.733H184c-4.713,0-8.533,3.817-8.533,8.533c0,4.717,3.821,8.533,8.533,8.533h85.333 c4.713,0,8.533-3.817,8.533-8.533C277.867,63.55,274.046,59.733,269.334,59.733z"/> </g> </g> <g> <g> <path d="M346.134,119.467H107.2c-4.713,0-8.533,3.817-8.533,8.533c0,4.717,3.821,8.533,8.533,8.533h238.933 c4.713,0,8.533-3.817,8.533-8.533C354.667,123.283,350.846,119.467,346.134,119.467z"/> </g> </g> <g> <g> <path d="M346.134,179.2H107.2c-4.713,0-8.533,3.817-8.533,8.533c0,4.717,3.821,8.533,8.533,8.533h238.933 c4.713,0,8.533-3.817,8.533-8.533C354.667,183.017,350.846,179.2,346.134,179.2z"/> </g> </g> <g> <g> <path d="M346.134,238.933H107.2c-4.713,0-8.533,3.817-8.533,8.533c0,4.717,3.821,8.533,8.533,8.533h238.933 c4.713,0,8.533-3.817,8.533-8.533C354.667,242.75,350.846,238.933,346.134,238.933z"/> </g> </g> <g> <g> <path d="M346.134,298.667H107.2c-4.713,0-9.6,2.75-9.6,7.467v128c0,4.717,4.887,9.6,9.6,9.6h187.733 c4.713,0,8.533-3.817,8.533-8.533s-3.821-8.533-8.533-8.533H114.667V315.733h221.867V348.8c0,4.717,3.821,8.533,8.533,8.533 s8.533-3.817,8.533-8.533v-42.667C353.6,301.417,350.846,298.667,346.134,298.667z"/> </g> </g> <g> <g> <path d="M387.734,391.467c-4.713,0-8.533,3.817-8.533,8.533v42.667c0,4.717,3.821,8.533,8.533,8.533s8.533-3.817,8.533-8.533V400 C396.267,395.283,392.446,391.467,387.734,391.467z"/> </g> </g> <g> <g> <path d="M397.163,466.558c-0.087-0.508-0.258-1.025-0.512-1.533c-0.171-0.517-0.429-1.025-0.771-1.542 c-0.338-0.425-0.679-0.85-1.021-1.275c-2.391-2.392-6.146-3.158-9.304-1.792c-1.108,0.425-1.962,1.025-2.812,1.792 c-1.537,1.617-2.475,3.75-2.475,6.058c0,2.3,0.85,4.433,2.475,6.058c0.85,0.767,1.792,1.367,2.812,1.792 c1.025,0.425,2.133,0.683,3.246,0.683c1.108,0,2.217-0.258,3.242-0.683c1.025-0.425,1.963-1.025,2.817-1.792 c0.767-0.858,1.363-1.792,1.792-2.817c0.512-1.025,0.683-2.133,0.683-3.242C397.334,467.667,397.246,467.158,397.163,466.558z"/> </g> </g> </g>

</svg>